<svg width="15" height="16" viewBox="0 0 15 16" fill="none" xmlns="http://www.w3.org/2000/svg">
<mask id="mask0_106:1253" style="mask-type:alpha" maskUnits="userSpaceOnUse" x="0" y="0" width="15" height="16">
<rect y="0.208008" width="15" height="14.8993" fill="white"/>
</mask>
<g mask="url(#mask0_106:1253)">
<path d="M11.2187 5.18894C10.9352 5.03152 10.5897 5.03152 10.3061 5.18894L8.21238 6.39519L6.78978 7.18187L4.69614 8.38812C4.41254 8.5454 4.06713 8.5454 3.78354 8.38812L2.11926 7.4441C1.84386 7.28723 1.67095 6.99888 1.66326 6.68364V4.82182C1.65943 4.50339 1.83555 4.20968 2.11926 4.06136L3.75666 3.14356C4.04025 2.98628 4.38566 2.98628 4.66926 3.14356L6.30666 4.06136C6.58205 4.21822 6.75496 4.50658 6.76266 4.82182V6.02807L8.18526 5.21516V4.00891C8.18908 3.69048 8.01296 3.39677 7.72926 3.24845L4.69614 1.51786C4.41254 1.36058 4.06713 1.36058 3.78354 1.51786L0.696295 3.24857C0.412631 3.39687 0.23652 3.69053 0.240295 4.00891V7.49655C0.236474 7.81497 0.412592 8.10868 0.696295 8.25701L3.78318 9.98771C4.06677 10.145 4.41218 10.145 4.69578 9.98771L6.78942 8.80769L8.21202 7.99478L10.3058 6.81475C10.5893 6.65733 10.9348 6.65733 11.2184 6.81475L12.8558 7.73255C13.1312 7.88943 13.3041 8.17778 13.3118 8.49301V10.3548C13.3156 10.6733 13.1395 10.967 12.8558 11.1153L11.2184 12.0593C10.9348 12.2166 10.5894 12.2166 10.3058 12.0593L8.66838 11.1415C8.39299 10.9846 8.22009 10.6963 8.21238 10.3811V9.17469L6.78978 9.98759V11.1938C6.78595 11.5123 6.96207 11.806 7.24578 11.9543L10.3327 13.685C10.6163 13.8423 10.9617 13.8423 11.2453 13.685L14.3321 11.9543C14.6075 11.7974 14.7804 11.5091 14.7881 11.1938V7.70633C14.792 7.3879 14.6158 7.09419 14.3321 6.94587L11.2187 5.18894Z" fill="#8247E5"/>
</g>
</svg>
