<svg width="16" height="16" viewBox="0 0 16 16" fill="none" xmlns="http://www.w3.org/2000/svg">
<path fill-rule="evenodd" clip-rule="evenodd" d="M7.99033 0L3.02055 4.98487L4.93304 6.90317L9.90283 1.9183L7.99033 0ZM0 8.01266L1.9125 6.09436L3.82499 8.01266L1.9125 9.93096L0 8.01266ZM7.9999 6.09436L6.0874 8.01266L7.9999 9.9329L9.9124 8.01266L7.9999 6.09436ZM14.0873 6.09436L12.1748 8.01266L14.0873 9.93096L15.9998 8.01266L14.0873 6.09436Z" fill="#F5B638"/>
<path fill-rule="evenodd" clip-rule="evenodd" d="M6.08932 1.8992L11.0796 6.83444L13 4.93524L8.00971 0L6.08932 1.8992ZM9.91068 13.9934L4.92039 9.05819L3 10.9574L7.99029 15.8926L9.91068 13.9934Z" fill="#F5B638"/>
<path d="M13 10.8717L7.94521 15.8926L6 13.9604L11.0548 8.93958L13 10.8717Z" fill="#F5B638"/>
</svg>
