<svg width="16" height="16" viewBox="0 0 40 40" fill="none" xmlns="http://www.w3.org/2000/svg">
<path d="M20.0995 0.485191C9.31699 0.485191 0.576012 9.22617 0.576012 20.0087C0.576012 30.7913 9.31699 39.5322 20.0995 39.5322C30.8821 39.5322 39.623 30.7913 39.623 20.0087C39.623 9.22617 30.8821 0.485191 20.0995 0.485191Z" fill="url(#paint0_linear_3612_15000)"/>
<path fill-rule="evenodd" clip-rule="evenodd" d="M20.1004 39.1579C30.6763 39.1579 39.2497 30.5845 39.2497 20.0086C39.2497 9.43267 30.6763 0.859211 20.1004 0.859211C9.52447 0.859211 0.951008 9.43267 0.951008 20.0086C0.951008 30.5845 9.52447 39.1579 20.1004 39.1579ZM39.998 20.0086C39.998 30.9978 31.0896 39.9062 20.1004 39.9062C9.11119 39.9062 0.202686 30.9978 0.202686 20.0086C0.202686 9.01939 9.11119 0.110889 20.1004 0.110889C31.0896 0.110889 39.998 9.01939 39.998 20.0086Z" fill="black"/>
<path d="M4.85188 18.7326L3.85075 19.7337L2.84961 18.7326L3.85075 17.7314L4.85188 18.7326Z" fill="black"/>
<path d="M37.3286 18.5021L36.3275 19.5032L35.3262 18.5021L36.3275 17.501L37.3286 18.5021Z" fill="black"/>
<path d="M2.25195 22.0847L6.21099 21.0977L6.91606 23.9256L6.35049 24.0666L6.49149 24.6322L5.92592 24.7732L6.06693 25.3387L4.3702 25.7619L4.22918 25.1962L3.6636 25.3372L3.5226 24.7717L2.95702 24.9127L2.25195 22.0847ZM3.09956 23.0749L3.38159 24.206L3.94717 24.065L4.08817 24.6307L5.78489 24.2075L5.64389 23.6421L6.20946 23.5011L5.92743 22.3697L3.09956 23.0749Z" fill="black"/>
<path d="M4.1582 28.2228L4.64706 27.9054L4.32959 27.4164L6.77385 25.8291L7.09132 26.3181L7.58017 26.0007L9.16749 28.4448L8.67864 28.7622L8.99611 29.2512L6.55184 30.8385L6.23438 30.3498L5.74553 30.6671L4.1582 28.2228ZM4.96452 28.3941L5.91691 29.8608L8.36118 28.2735L7.40878 26.8068L4.96452 28.3941Z" fill="black"/>
<path d="M8.10397 33.2266L8.47081 32.7737L8.01781 32.4069L8.38465 31.9538L7.93164 31.587L9.03212 30.2281L9.48511 30.5949L9.85193 30.142L10.3049 30.5088L10.6718 30.0557L12.9367 31.8898L12.5699 32.3429L10.7579 30.8756L10.3911 31.3285L9.93811 30.9617L8.83763 32.3208L9.29061 32.6876L8.92379 33.1405L9.82978 33.8742L10.5634 32.9682L10.1104 32.6015L10.4773 32.1483L11.8362 33.2489L10.3689 35.0607L8.10397 33.2266Z" fill="black"/>
<path d="M12.4668 36.129L13.8623 32.2949L17.6965 33.6903L17.4971 34.2381L14.7584 33.2414L14.3597 34.3367L16.5507 35.1343L16.3513 35.682L14.1603 34.8844L13.7616 35.98L16.5003 36.9767L16.301 37.5244L12.4668 36.129Z" fill="black"/>
<path d="M19.1013 37.8038V37.2211H18.5185V36.6382H17.9355V34.8895H18.5185V34.3066H19.1013V33.7236H21.4329V34.3066H22.0157V34.8895H20.85V34.3066H19.6842V34.8895H19.1013V36.6382H19.6842V37.2211H20.85V36.6382H22.0157V37.2211H21.4329V37.8038H19.1013Z" fill="black"/>
<path d="M24.2185 37.3928L22.8027 33.5661L23.8961 33.1618L24.5028 34.8018L26.1428 34.195L25.5361 32.5548L26.6294 32.1504L28.0451 35.9771L26.9518 36.3816L26.345 34.7416L24.705 35.3484L25.3118 36.9884L24.2185 37.3928Z" fill="black"/>
<path d="M29.8478 34.9591L28.0137 32.6942L28.4666 32.3274L28.0998 31.8743L28.5529 31.5075L28.1859 31.0546L29.545 29.9541L29.9118 30.407L30.3647 30.0402L30.7317 30.4933L31.1846 30.1263L33.0187 32.3915L32.1127 33.125L31.3791 32.219L30.02 33.3196L30.7538 34.2256L29.8478 34.9591ZM29.6532 32.8664L31.0124 31.7661L30.2786 30.8601L29.8257 31.2269L29.4587 30.774L29.0058 31.1408L29.3726 31.5937L28.9197 31.9607L29.6532 32.8664Z" fill="black"/>
<path d="M34.1894 30.9396L33.7007 30.6222L34.3354 29.6445L31.8913 28.0572L31.2563 29.0349L30.7676 28.7175L32.6723 25.7842L33.1612 26.1018L32.5263 27.0795L34.9704 28.6668L35.6054 27.6891L36.0944 28.0065L34.1894 30.9396Z" fill="black"/>
<path d="M36.8827 26.078L32.9238 25.0909L33.2058 23.9598L33.7715 24.1008L33.9125 23.5351L34.4779 23.6761L34.6189 23.1106L35.1846 23.2516L35.3256 22.6861L33.6287 22.2629L33.9109 21.1318L37.8698 22.1189L37.5879 23.25L36.4567 22.9681L36.3157 23.5335L35.7501 23.3926L35.6091 23.9582L35.0436 23.8173L34.9026 24.3827L37.1649 24.9469L36.8827 26.078Z" fill="black"/>
<path d="M22.4098 7.70021C22.2941 7.8229 22.1964 7.92847 22.1221 8.00978C21.2622 7.82209 20.224 7.72495 19.3516 7.72495C18.6924 7.72495 18.0458 7.78032 17.4164 7.88672C16.4692 7.60357 15.7231 7.33389 14.8152 6.37975C14.7438 6.30462 14.6674 6.22309 14.5869 6.13704C14.1213 5.63984 13.5146 4.99186 12.8914 4.561C12.5238 4.30681 12.1078 4.09656 11.6737 4.05662C11.2134 4.01426 10.7725 4.16771 10.4023 4.56078C9.74863 5.2547 9.17059 6.63256 8.83361 8.39992C8.49792 10.1604 8.39007 12.3652 8.71269 14.8039C8.13901 16.1738 7.82227 17.6775 7.82227 19.2542C7.82227 21.6091 8.52871 23.8003 9.7413 25.6256C11.5803 29.5487 15.5653 32.2669 20.186 32.2669C25.5737 32.2669 30.0972 28.5716 31.3625 23.578C32.0648 22.3071 32.4581 20.8919 32.4581 19.3998C32.4581 16.3629 30.8334 13.6604 28.302 11.8237C27.5722 10.4226 27.5398 9.43975 27.5046 8.36771C27.4981 8.16816 27.4913 7.96552 27.4799 7.75651C27.4686 7.54318 27.4629 7.35684 27.4574 7.17586C27.4533 7.04281 27.4493 6.91265 27.4432 6.77682C27.4301 6.48222 27.4069 6.19087 27.3398 5.93704C27.2714 5.67776 27.1475 5.42045 26.9059 5.23547C26.6659 5.05157 26.365 4.98143 26.0277 4.98143C25.8082 4.98143 25.587 5.05914 25.3912 5.15356C25.1886 5.25127 24.9759 5.38545 24.7641 5.5371C24.3407 5.8406 23.8874 6.23885 23.4762 6.62808C23.0633 7.01896 22.6847 7.40878 22.4098 7.70021Z" fill="url(#paint1_linear_3612_15000)" stroke="black" stroke-width="0.6"/>
<path fill-rule="evenodd" clip-rule="evenodd" d="M8.65039 22.3025C8.96995 23.4264 9.4618 24.478 10.0956 25.4266C11.8648 29.2275 15.7181 31.8622 20.1868 31.8622C25.4032 31.8622 29.7811 28.2721 30.9842 23.4279C31.6714 22.201 32.0545 20.8368 32.0545 19.3996C32.0545 17.9605 31.6705 16.5947 30.9815 15.3667C30.5547 15.223 30.1861 15.2223 29.8956 15.3839C29.4471 15.6333 29.2336 16.2411 29.2316 17.1107C29.2305 17.6612 28.6631 18.0957 28.1361 17.9364C26.6021 17.4727 25.1147 17.534 23.8694 18.2262C23.5557 18.4006 23.2685 18.609 23.0078 18.8477C21.8152 19.9395 19.1128 20.6445 17.8576 19.6254C15.4314 17.6557 12.8294 16.9292 10.9398 17.9797C9.56626 18.7434 8.80241 20.3162 8.65039 22.3025Z" fill="white"/>
<path fill-rule="evenodd" clip-rule="evenodd" d="M19.447 29.3592C15.9242 29.6838 12.3926 27.1295 9.92383 25.0337C11.6046 29.0446 15.5676 31.8624 20.1888 31.8624C25.393 31.8624 29.7624 28.289 30.9777 23.4619L30.7458 23.9841C30.5112 24.5122 29.8537 24.6958 29.3796 24.366C29.3075 24.752 29.1527 25.1142 28.9313 25.439C28.3108 26.2243 27.504 26.736 26.5044 26.9211C26.2782 26.959 26.0446 26.9791 25.8052 26.9791C25.1464 26.9791 24.5287 26.8278 23.9965 26.5638C24.1232 26.9843 22.97 29.0348 19.447 29.3592Z" fill="#F7ECDF"/>
<path d="M11.3697 12.0215C10.7332 9.93733 10.8961 7.38576 11.3697 5.91309C12.199 8.68869 14.2077 10.3224 14.2077 10.3224C13.3699 10.5042 12.1731 11.2085 11.3697 12.0215Z" fill="black"/>
<path d="M24.3991 19.3933C25.0289 18.0499 28.7292 17.81 29.3126 19.3933C29.637 20.274 28.3296 22.2773 27.4584 22.4062C26.2068 22.5916 23.7038 20.8766 24.3991 19.3933Z" fill="black"/>
<path opacity="0.5" d="M20.6679 12.9462C20.1651 13.3367 18.2947 13.3697 18.1073 12.7981C17.92 12.2265 19.1263 10.9962 20.0049 11.3852C20.7375 11.7096 21.3179 12.4413 20.6679 12.9462Z" fill="white"/>
<path opacity="0.5" d="M26.5181 12.191C26.1693 12.7139 25.232 12.6558 24.8591 12.191C24.4864 11.7262 24.5439 10.8434 25.5162 10.9153C26.3267 10.9752 26.7525 11.8396 26.5181 12.191Z" fill="white"/>
<path d="M23.8006 26.9258C23.5916 26.74 23.8533 26.5013 24.1077 26.6174C24.6135 26.848 25.1905 26.9787 25.8032 26.9787C27.3779 26.9787 28.7177 26.1153 29.2157 24.9096C29.2609 24.8005 29.4233 24.8115 29.4233 24.9295C29.4233 26.5054 27.9551 27.7828 26.144 27.7828C25.2259 27.7828 24.3958 27.4547 23.8006 26.9258Z" fill="black"/>
<path fill-rule="evenodd" clip-rule="evenodd" d="M33.6628 12.209L10.6465 14.9316L10.7772 16.0364L14.2756 15.6226L14.4063 16.7273L15.511 16.5967L15.6417 17.7014L16.7467 17.5707L16.7466 17.5708L16.8773 18.6755L20.5599 18.2399L20.4292 17.1351L20.4291 17.1351L21.5339 17.0044L21.4032 15.8997L22.508 15.769L22.3773 14.6642L33.7935 13.3138L33.6628 12.209ZM24.5869 14.4028L32.6888 13.4445L32.8195 14.5493L24.7176 15.5076L24.5869 14.4028ZM31.7146 14.68L25.8223 15.377L25.953 16.4817L27.0584 16.351L27.058 16.3511L27.1887 17.4559L30.8713 17.0203L30.7406 15.9155L30.7401 15.9155L31.8453 15.7848L31.7146 14.68Z" fill="black"/>
<path d="M30.4792 13.7059L31.584 13.5752L31.7147 14.68L30.6099 14.8107L30.4792 13.7059Z" fill="white"/>
<path d="M29.5065 14.9403L30.6113 14.8096L30.742 15.9144L29.6372 16.045L29.5065 14.9403Z" fill="white"/>
<path d="M20.1667 14.9246L21.2715 14.7939L21.4022 15.8987L20.2974 16.0294L20.1667 14.9246Z" fill="white"/>
<path d="M19.194 16.16L20.2988 16.0293L20.4295 17.1341L19.3247 17.2648L19.194 16.16Z" fill="white"/>
<path d="M30.243 20.1826C31.156 21.3862 30.1558 23.5664 28.4222 23.5343C28.0443 23.5273 27.6583 23.6683 27.3993 23.9433C26.0305 25.3975 23.1457 25.58 22.2524 23.5691C22.1623 23.3662 22.0185 23.1857 21.8199 23.0864L21.1113 22.7321" stroke="black" stroke-width="0.6" stroke-linecap="round"/>
<path d="M25.4707 25.1784C27.7017 26.0744 29.0158 24.3502 28.9009 23.7041L27.3518 23.8812L25.4707 25.1784Z" fill="black"/>
<defs>
<linearGradient id="paint0_linear_3612_15000" x1="20.0995" y1="39.9064" x2="20.0995" y2="0.11105" gradientUnits="userSpaceOnUse">
<stop stop-color="#7774F4"/>
<stop offset="0.714952" stop-color="#9157F9"/>
<stop offset="1" stop-color="#B133FF"/>
</linearGradient>
<linearGradient id="paint1_linear_3612_15000" x1="20.1401" y1="4.45422" x2="20.1401" y2="31.8623" gradientUnits="userSpaceOnUse">
<stop stop-color="#FBF476"/>
<stop offset="0.449777" stop-color="#FFA725"/>
<stop offset="1" stop-color="#FFA725"/>
</linearGradient>
</defs>
</svg>
