<svg xmlns="http://www.w3.org/2000/svg" width="16" height="16" viewBox="0 0 256 256">
  <g id="avalanche" transform="translate(-130.352 -83.5)">
    <path id="Path_237" data-name="Path 237" d="M128.152,256a128,128,0,1,0-128-128A128,128,0,0,0,128.152,256ZM89.476,185.99H59.449c-7.119,0-10.679,0-12.811-1.379a8.586,8.586,0,0,1-3.912-6.728c-.143-2.533,1.62-5.622,5.147-11.8l0,0L113.618,50.905c3.578-6.269,5.367-9.4,7.644-10.57a8.6,8.6,0,0,1,7.837-.006c2.278,1.163,4.072,4.3,7.659,10.559l15.163,26.474h0c2.609,4.554,3.913,6.832,4.487,9.234a17.165,17.165,0,0,1,0,7.957c-.571,2.4-1.874,4.682-4.479,9.239l-39.314,68.775c-2.643,4.624-3.964,6.936-5.775,8.664a17.2,17.2,0,0,1-6.973,4.045C97.47,185.99,94.806,185.99,89.476,185.99Zm107.13,0H161.792c-7.184,0-10.776,0-12.915-1.391a8.587,8.587,0,0,1-3.9-6.772c-.127-2.546,1.681-5.648,5.3-11.85l17.378-29.815c3.57-6.124,5.355-9.186,7.615-10.333a8.6,8.6,0,0,1,7.775-.006c2.262,1.143,4.051,4.2,7.629,10.322v0l17.436,29.814c3.629,6.207,5.444,9.31,5.32,11.858a8.589,8.589,0,0,1-3.895,6.78C207.4,185.99,203.8,185.99,196.606,185.99Z" transform="translate(130.199 83.5)" fill="#e84142" fill-rule="evenodd"/>
  </g>
</svg>
