<svg width="10" height="16" viewBox="0 0 10 16" fill="none" xmlns="http://www.w3.org/2000/svg">
<path d="M6 5.0212C6 2.88257 5.01949 1.04227 4.27392 0.443704C4.27097 0.44182 4.21725 0.409787 4.22198 0.495207L4.2208 0.498348C4.15881 4.62802 2.17477 5.74727 1.08446 7.25594C-1.43322 10.7355 0.907368 14.5518 3.29164 15.2565C4.62575 15.6509 2.9835 14.5581 2.77217 12.2505C2.51656 9.46052 6 7.33131 6 5.0212Z" fill="#1D2140"/>
<path d="M7.93939 6.40639C7.92158 6.39505 7.89522 6.3875 7.87741 6.41394C7.82755 6.93529 7.22489 8.05101 6.46125 9.07355C3.87041 12.5467 5.34713 14.2203 6.17631 15.1194C6.65928 15.642 6.17631 15.1194 7.38232 14.5861C7.47636 14.5445 9.7331 13.4263 9.97743 10.8794C10.2132 8.41243 8.53705 6.85847 7.9401 6.40639H7.93939Z" fill="#54A9DB"/>
</svg>
