<svg width="16" height="16" viewBox="0 0 16 16" fill="none" xmlns="http://www.w3.org/2000/svg">
<path fill-rule="evenodd" clip-rule="evenodd" d="M4.44458 1.63892H13.1112C13.8016 1.63892 14.3612 2.19856 14.3612 2.88892V11.5556H15.8612V2.88892C15.8612 1.37013 14.63 0.138916 13.1112 0.138916H4.44458V1.63892ZM2.38892 3.69458C1.14627 3.69458 0.138916 4.70194 0.138916 5.94458V13.6112C0.138916 14.8539 1.14628 15.8612 2.38892 15.8612H10.0556C11.2982 15.8612 12.3056 14.8539 12.3056 13.6112V5.94458C12.3056 4.70194 11.2982 3.69458 10.0556 3.69458H2.38892ZM1.63892 5.94458C1.63892 5.53037 1.9747 5.19458 2.38892 5.19458H10.0556C10.4698 5.19458 10.8056 5.53037 10.8056 5.94458V13.6112C10.8056 14.0255 10.4698 14.3612 10.0556 14.3612H2.38892C1.9747 14.3612 1.63892 14.0255 1.63892 13.6112V5.94458Z" fill="#C4C4C4"/>
</svg>
