<svg width="23" height="24" viewBox="0 0 23 24" fill="none" xmlns="http://www.w3.org/2000/svg">
    <path d="M21.0462 13.7451L20.5954 13.4846C20.0588 13.1751 19.7382 12.6197 19.7382 12C19.7382 11.3803 20.0588 10.8249 20.5954 10.5154L21.0462 10.2549C22.2771 9.54343 22.698 7.97314 21.9874 6.74229L21.1302 5.25771C20.4214 4.02943 18.8451 3.60771 17.6177 4.31657L17.1668 4.57629C16.6302 4.88657 15.9882 4.88657 15.4525 4.57629C14.916 4.266 14.5954 3.71143 14.5954 3.09171V2.57143C14.5954 1.15371 13.4417 0 12.024 0H10.3097C8.89195 0 7.73824 1.15371 7.73824 2.57143V3.09257C7.73824 3.71229 7.41767 4.26686 6.88109 4.57714C6.34452 4.88657 5.70338 4.88743 5.16681 4.57714L4.71595 4.31657C3.48852 3.60771 1.91224 4.02943 1.20252 5.25771L0.34538 6.74229C-0.365191 7.97314 0.0556659 9.54429 1.28652 10.2549L1.73824 10.5154C2.27481 10.8249 2.59538 11.3803 2.59538 12C2.59538 12.6197 2.27481 13.1751 1.73824 13.4846L1.28738 13.7451C0.056523 14.4557 -0.364334 16.0269 0.346237 17.2577L1.20338 18.7423C1.91309 19.9706 3.48938 20.3923 4.71595 19.6834L5.16681 19.4237C5.70338 19.1126 6.34452 19.1143 6.88109 19.4237C7.41767 19.734 7.73824 20.2886 7.73824 20.9083V21.4286C7.73824 22.8463 8.89195 24 10.3097 24H12.024C13.4417 24 14.5954 22.8463 14.5954 21.4286V20.9074C14.5954 20.2877 14.916 19.7331 15.4525 19.4229C15.9882 19.1134 16.6302 19.1126 17.1668 19.4229L17.6177 19.6834C18.8451 20.3914 20.4214 19.9697 21.1302 18.7423L21.9874 17.2577C22.698 16.0269 22.2771 14.4557 21.0462 13.7451ZM11.1668 16.2857C8.80367 16.2857 6.88109 14.3631 6.88109 12C6.88109 9.63686 8.80367 7.71429 11.1668 7.71429C13.53 7.71429 15.4525 9.63686 15.4525 12C15.4525 14.3631 13.53 16.2857 11.1668 16.2857Z" fill="black"/>
</svg>