<svg width="44" height="44" viewBox="0 0 44 44" fill="none" xmlns="http://www.w3.org/2000/svg">
<circle cx="22" cy="22" r="22" fill="black"/>
<path d="M2 21.9179C2 33.0094 10.9808 42 22.0603 42C33.1399 42 42.1207 33.0094 42.1207 21.9179C42.1207 10.8265 33.1399 1.83626 22.0603 1.83626C10.9808 1.83627 2 10.8269 2 21.9179ZM18.937 34.2083C18.9292 34.2128 18.9169 34.2128 18.9079 34.2177L18.8587 34.23C18.8492 34.23 18.8414 34.2345 18.834 34.2345L18.7799 34.2468C18.7676 34.2468 18.7598 34.2513 18.752 34.2513C18.7348 34.2546 18.7135 34.2546 18.6979 34.2591C18.6856 34.2591 18.6761 34.264 18.6638 34.264C18.6487 34.264 18.6314 34.2686 18.6146 34.2686C18.6039 34.2714 18.5867 34.2714 18.5732 34.2714L18.5748 34.2714C18.5625 34.2714 18.5502 34.2759 18.5285 34.2714C18.5039 34.2759 18.4743 34.2759 18.4464 34.2759C18.4173 34.2759 18.3923 34.2714 18.3632 34.2714L18.323 34.2686L18.2812 34.264C18.2643 34.264 18.2471 34.264 18.2319 34.2591C18.2196 34.2591 18.2102 34.2546 18.1979 34.2546C18.1803 34.2542 18.1626 34.2513 18.1454 34.2468C18.1314 34.2468 18.1237 34.2423 18.1163 34.2423L18.0625 34.23C18.0531 34.23 18.0453 34.23 18.0379 34.2255L17.9887 34.2132C17.9809 34.2087 17.9686 34.2087 17.9608 34.2042C17.9469 34.2013 17.9301 34.1919 17.9145 34.1873L17.8804 34.175C17.8681 34.1705 17.8525 34.1627 17.8402 34.1595L17.8033 34.1439C17.791 34.141 17.7787 34.1332 17.766 34.1287C17.7537 34.1254 17.7369 34.1193 17.7242 34.1102C17.7151 34.1024 17.7024 34.0996 17.6963 34.0946C17.6778 34.0901 17.6655 34.0823 17.6499 34.0729C17.6429 34.0659 17.6343 34.0602 17.6253 34.0561C17.6081 34.0483 17.5962 34.0389 17.579 34.0298C17.572 34.0233 17.5642 34.0184 17.556 34.0143C17.5388 34.0052 17.5252 33.9925 17.5096 33.9835C17.5006 33.9802 17.4924 33.9712 17.485 33.9663L17.4387 33.9322L17.4141 33.9121C17.4018 33.9027 17.3895 33.8953 17.3772 33.8826C17.3649 33.8736 17.3571 33.8609 17.3448 33.8518C17.337 33.8428 17.323 33.8346 17.3156 33.8272L17.2537 33.7669L13.2973 29.6965C12.6366 29.0104 12.6366 27.9234 13.2973 27.2372C13.9577 26.5576 15.0257 26.5576 15.6861 27.2372L16.7587 28.3418L16.7587 11.3986C16.7587 10.4348 17.5179 9.65794 18.4497 9.65794C19.3865 9.65794 20.1424 10.4397 20.1424 11.3986L20.1424 32.5447C20.1424 32.5693 20.1375 32.5988 20.1375 32.6296L20.133 32.6665L20.1301 32.71C20.1305 32.7272 20.1293 32.7444 20.1256 32.7608C20.1256 32.7731 20.1211 32.7826 20.1211 32.7949C20.1203 32.8129 20.1178 32.8314 20.1133 32.849C20.1133 32.8629 20.1088 32.8707 20.1088 32.8802L20.0965 32.9343C20.0932 32.9483 20.0932 32.9561 20.0887 32.9651L20.0764 33.0143C20.0719 33.0237 20.0719 33.0373 20.067 33.0455L20.0518 33.0918L20.0379 33.1259L20.0223 33.1693L20.01 33.2062L19.9927 33.2448C19.9895 33.2571 19.9849 33.2739 19.9755 33.2866C19.9677 33.2957 19.9648 33.3084 19.9603 33.3174C19.9558 33.333 19.948 33.3486 19.9386 33.3637C19.932 33.3715 19.9267 33.3806 19.923 33.39L19.8984 33.4363C19.8918 33.4441 19.8865 33.4532 19.8832 33.4626C19.8738 33.4782 19.8615 33.4921 19.8521 33.5089C19.8488 33.5184 19.8397 33.5258 19.8369 33.5336L19.8028 33.5799L19.7844 33.6062L19.7536 33.6447C19.7458 33.657 19.7335 33.6648 19.7257 33.6771L19.7011 33.7079C19.6794 33.728 19.6638 33.7497 19.6425 33.7714C19.6224 33.7932 19.6006 33.81 19.5809 33.8301C19.5731 33.8391 19.5608 33.8473 19.5514 33.8547C19.5391 33.8641 19.5313 33.8781 19.519 33.8855C19.5067 33.8949 19.4944 33.9072 19.4817 33.915L19.4571 33.9367C19.4419 33.949 19.4279 33.963 19.4107 33.972C19.4029 33.9749 19.3955 33.9831 19.3878 33.9876C19.3709 33.9966 19.357 34.0093 19.3414 34.0184C19.3324 34.0262 19.3246 34.0307 19.3168 34.0339L19.2721 34.0602L19.2458 34.077C19.2307 34.0815 19.2179 34.0893 19.2028 34.0987C19.1938 34.1065 19.1814 34.1111 19.172 34.1156C19.1597 34.1184 19.1441 34.1279 19.1318 34.1324C19.1195 34.1357 19.1072 34.1447 19.0949 34.1496L19.0563 34.1619L19.0145 34.1791L18.9838 34.1914C18.9694 34.2005 18.9526 34.2037 18.937 34.2083ZM25.753 9.56484L25.7948 9.56771L25.8366 9.57222C25.8522 9.57222 25.869 9.57222 25.8859 9.57674C25.8982 9.57674 25.906 9.58166 25.9183 9.58166C25.9363 9.58206 25.9548 9.58494 25.9724 9.58945C25.9847 9.58945 25.9925 9.59396 26.0003 9.59396L26.0544 9.60626C26.0639 9.60626 26.0712 9.60626 26.079 9.61078L26.1283 9.62308C26.1377 9.628 26.15 9.628 26.1578 9.63251C26.1717 9.63579 26.1869 9.64482 26.2025 9.64933C26.2164 9.65261 26.2242 9.65713 26.2365 9.66164L26.2784 9.67722L26.3153 9.6924C26.3276 9.69527 26.3403 9.70347 26.3526 9.70798C26.3649 9.71126 26.3805 9.71701 26.3928 9.72644C26.4018 9.73424 26.4145 9.73711 26.4219 9.74162C26.4375 9.74654 26.4511 9.75392 26.4683 9.76335C26.4761 9.77115 26.4839 9.77566 26.4912 9.78058C26.5081 9.78837 26.522 9.7974 26.5376 9.80683C26.5466 9.81462 26.5548 9.81914 26.5622 9.82242C26.5778 9.83144 26.5913 9.84416 26.6086 9.85318C26.6163 9.85646 26.6241 9.86548 26.6315 9.87041C26.6483 9.88271 26.6623 9.8905 26.6779 9.90445L26.7025 9.92454C26.7148 9.93398 26.7271 9.94177 26.7398 9.95572C26.7521 9.96802 26.7644 9.97582 26.7767 9.98976C26.7845 9.99879 26.7985 10.0066 26.8058 10.0144L26.8678 10.0747L30.8241 14.1467C31.4845 14.8247 31.4845 15.9231 30.8241 16.6027C30.1638 17.2823 29.0957 17.2823 28.4354 16.6027L27.3628 15.4998L27.3628 32.4475C27.3628 33.4097 26.6036 34.1869 25.6718 34.1869C24.735 34.1869 23.979 33.4052 23.979 32.4475L23.979 11.2965C23.979 11.2719 23.9836 11.2424 23.9836 11.2116C23.9836 11.1993 23.9881 11.187 23.9881 11.1731L23.9913 11.1312C23.9913 11.114 23.9913 11.0955 23.9959 11.0804C23.9959 11.0681 24.0008 11.0586 24.0008 11.0463C24.0012 11.0283 24.0041 11.0098 24.0086 10.9922C24.0086 10.9766 24.0131 10.9688 24.0131 10.961L24.0254 10.9069C24.0283 10.8917 24.0283 10.8839 24.0332 10.8761L24.0455 10.8252C24.0504 10.8158 24.0504 10.8035 24.0549 10.7941L24.0701 10.7477L24.084 10.7153L24.0996 10.6719L24.1119 10.6333L24.1287 10.5964C24.132 10.5824 24.1365 10.5656 24.146 10.5545C24.1538 10.5455 24.1566 10.5312 24.1612 10.5238C24.1661 10.5066 24.1735 10.4926 24.1829 10.4774C24.1895 10.4696 24.1948 10.4606 24.1985 10.4512L24.2231 10.4048C24.2309 10.3954 24.2354 10.388 24.2387 10.3786C24.2477 10.363 24.2604 10.3491 24.2694 10.3322C24.2727 10.3244 24.2817 10.315 24.285 10.306L24.3191 10.2596L24.3375 10.2346C24.3465 10.2223 24.356 10.2084 24.3683 10.1961C24.3761 10.1838 24.3884 10.1743 24.3962 10.1637L24.4208 10.1329L24.4794 10.0693L24.5414 10.009C24.5492 9.9996 24.5615 9.99181 24.5705 9.98443C24.5828 9.975 24.5906 9.96269 24.6029 9.95531L24.6402 9.92414L24.6648 9.90404C24.6804 9.89009 24.6939 9.87779 24.7112 9.86877C24.719 9.86549 24.7268 9.85646 24.7341 9.85318C24.7514 9.84416 24.7649 9.83144 24.7805 9.82242C24.7875 9.81544 24.7961 9.8097 24.8051 9.8056C24.8223 9.79781 24.8342 9.78837 24.8498 9.77935C24.8588 9.77156 24.867 9.76869 24.8761 9.76377C24.8916 9.75925 24.9039 9.75146 24.9191 9.74203C24.9281 9.73423 24.9409 9.72972 24.9499 9.72521L24.9901 9.70798C25.0024 9.70347 25.0147 9.69568 25.027 9.6924L25.0655 9.67722L25.1074 9.66164L25.1381 9.64769C25.1525 9.6399 25.1681 9.63497 25.1845 9.63251C25.1923 9.628 25.2046 9.628 25.2136 9.62308L25.2628 9.61078C25.2723 9.61078 25.2796 9.61077 25.2879 9.60627L25.342 9.59396C25.3543 9.59396 25.3621 9.58945 25.3699 9.58945C25.3871 9.58494 25.4084 9.58494 25.424 9.58166C25.4363 9.58166 25.4458 9.57674 25.4581 9.57674C25.4732 9.57674 25.4905 9.57222 25.5073 9.57222C25.5196 9.56771 25.5352 9.56771 25.5475 9.56771C25.5643 9.56484 25.5766 9.56484 25.5889 9.56484C25.6135 9.56033 25.6414 9.56033 25.6722 9.56033C25.6992 9.55992 25.7238 9.56484 25.753 9.56484Z" fill="white"/>
</svg>
