<svg width="63" height="63" viewBox="0 0 63 63" fill="none" xmlns="http://www.w3.org/2000/svg">
<path d="M56.8778 47.838L52.6536 40.5207C52.2604 39.8365 51.3853 39.6063 50.7048 39.9981C50.0217 40.3925 49.7874 41.2651 50.1835 41.9482L54.4073 49.2658C54.8898 50.1035 55.0151 50.849 54.7502 51.3106C54.48 51.7776 53.7577 52.0467 52.7681 52.0467H9.8093C8.82528 52.0467 8.10592 51.7789 7.83546 51.3106C7.5677 50.8436 7.69588 50.0878 8.18676 49.2348L29.6635 12.0339C30.642 10.3441 31.9273 10.3357 32.8977 12.0086L43.3475 30.1088C43.7377 30.7919 44.6104 31.0217 45.2963 30.6315C45.9793 30.237 46.2136 29.3644 45.8176 28.6814L35.3678 10.5809C33.3576 7.09612 29.2144 7.10153 27.1931 10.606L5.71669 47.8063C4.68501 49.5917 4.55954 51.3429 5.36243 52.7382C6.15721 54.1125 7.77704 54.9016 9.80955 54.9016H52.7681C54.8342 54.9016 56.415 54.1334 57.2209 52.7382C58.0237 51.3495 57.9009 49.6084 56.8778 47.838Z" fill="#000"/>
<path d="M31.4255 21.4272C30.6262 21.4272 29.9824 22.0695 29.9824 22.8676C29.9824 23.664 30.6262 24.3092 31.4255 24.3092C32.2219 24.3092 32.866 23.664 32.866 22.8676C32.866 22.0695 32.222 21.4272 31.4255 21.4272Z" fill="#000"/>
<path d="M29.9824 28.3835V46.164C29.9824 46.8525 30.6216 47.4106 31.4099 47.4106C32.1996 47.4106 32.8373 46.8525 32.8373 46.164V28.3835C32.8388 27.6965 32.1995 27.1372 31.4099 27.1372C30.6231 27.1372 29.9824 27.6966 29.9824 28.3835Z" fill="#000"/>
</svg>