<svg width="16" height="16" viewBox="0 0 16 16" fill="none" xmlns="http://www.w3.org/2000/svg">
<g opacity="0.4" clip-path="url(#clip0_462_2269)">
<path d="M15.4665 2.66667H11.3332V1.33333C11.3332 0.979711 11.1927 0.640573 10.9427 0.390524C10.6926 0.140476 10.3535 0 9.99987 0L5.99987 0C5.64625 0 5.30711 0.140476 5.05706 0.390524C4.80701 0.640573 4.66654 0.979711 4.66654 1.33333V2.66667H0.533203V4H1.86654V14C1.86654 14.5304 2.07725 15.0391 2.45232 15.4142C2.8274 15.7893 3.3361 16 3.86654 16H11.3332C11.8636 16 13.1723 15.7893 13.5474 15.4142C13.9225 15.0391 14.1332 14.5304 14.1332 14V4H15.4665V2.66667ZM5.99987 1.33333H9.99987V2.66667H5.99987V1.33333ZM12.7999 14C12.7999 14.1768 12.7296 14.3464 12.6046 14.4714C12.4796 14.5964 12.31 14.6667 12.1332 14.6667H3.86654C3.68973 14.6667 3.52016 14.5964 3.39513 14.4714C3.27011 14.3464 3.19987 14.1768 3.19987 14V4H12.7999V14Z" fill="black"/>
</g>
<defs>
<clipPath id="clip0_462_2269">
<rect width="16" height="16" fill="white"/>
</clipPath>
</defs>
</svg>